<svg xmlns="http://www.w3.org/2000/svg" xmlns:xlink="http://www.w3.org/1999/xlink" width="150" height="60" viewBox="0 0 1638 664">
    <path id="logo-outer" d="M567.412979,1.08594659 C607.425979,6.17694659 645.009979,31.9079466 651.543979,74.0019466 C656.930979,108.692947 638.155979,138.978947 610.042979,157.741947 C595.635979,167.357947 576.011979,178.595947 559.580979,166.212947 C540.197979,151.610947 551.975979,124.431947 541.386979,112.355947 C531.729979,101.341947 518.576979,100.052947 505.007979,103.326947 C498.418979,104.920947 485.317979,110.268947 478.559979,116.010947 C481.713979,120.924947 489.317979,127.688947 491.842979,130.903947 C531.261979,181.134947 545.483979,243.356947 520.819979,302.520947 C531.307979,281.893947 541.829979,261.279947 552.582979,240.792947 C561.827979,223.174947 572.285979,202.188947 583.700979,185.981947 C601.708979,160.403947 625.357979,157.022947 652.369979,170.467947 C663.721979,176.115947 672.434979,185.077947 676.085979,197.426947 C681.647599,216.237727 673.849085,233.45245 665.848527,250.074176 L665.01108,251.811537 L665.01108,251.811537 L664.453617,252.967499 C664.360832,253.160012 664.268122,253.352453 664.175509,253.544824 L663.621159,254.698211 C663.068302,255.850775 662.520419,257.000907 661.981979,258.148947 C676.814979,253.391947 691.610979,251.114947 707.371979,251.114947 C756.009979,251.114947 761.371979,306.639947 741.512979,339.062947 C735.185979,349.548947 728.976979,363.901947 723.719979,375.106947 C720.874979,381.172947 716.541979,389.813947 713.117979,397.781947 C718.256979,393.193947 723.905979,386.315947 726.632979,382.761947 C740.905979,358.227947 752.725979,334.089947 764.428979,308.240947 C764.584979,307.893947 764.727979,307.602947 764.899979,307.265947 C777.170979,283.443947 793.033979,251.114947 824.257979,251.114947 C825.673979,251.114947 827.089979,251.156947 828.502979,251.241947 L811.851979,221.881947 C807.964979,215.028947 808.015979,207.216947 811.994979,200.418947 L836.523979,158.489947 C840.503979,151.695947 847.277979,147.837947 855.139979,147.887947 L903.629979,148.221947 C911.490979,148.277947 918.210979,152.231947 922.096979,159.080947 L946.044979,201.318947 C946.567979,202.234947 947.013979,203.173947 947.393979,204.119947 C951.136979,197.004947 955.069979,190.286947 958.986979,185.208947 C976.572979,162.422947 996.650979,157.660947 1023.44798,167.276947 C1052.87598,177.835947 1060.48498,207.676947 1050.83598,235.231947 C1038.44298,270.641947 982.566979,361.995947 976.483979,396.036947 C980.475979,392.226947 984.535979,387.506947 986.394979,385.241947 C992.413979,377.919947 999.841979,361.962947 1004.12098,353.300947 C1013.54598,334.228947 1022.43198,314.832947 1031.32298,295.502947 C1044.66498,266.475947 1058.38498,233.914947 1074.25598,206.367947 C1076.28398,202.847947 1077.93198,199.450947 1080.23898,196.024947 C1093.95098,175.595947 1105.55998,158.797947 1134.13198,163.242947 C1158.07998,166.972947 1184.73398,181.249947 1184.73398,209.083947 C1184.73398,220.334947 1182.89198,226.051947 1178.81498,236.085947 C1167.47598,263.996947 1151.78998,292.066947 1138.50398,319.267947 C1129.44398,337.815947 1113.59898,369.904947 1108.38098,392.990947 C1109.63598,391.731947 1110.68998,390.586947 1111.37698,389.754947 C1114.50098,385.959947 1117.39298,381.980947 1120.10398,377.877947 C1142.09098,344.614947 1153.04198,306.651947 1177.58898,273.455947 C1186.91298,260.844947 1198.45498,251.114947 1215.06798,251.114947 C1236.08998,251.114947 1254.10698,258.719947 1266.04498,276.468947 C1270.77898,283.507947 1273.95798,292.675947 1273.95798,301.197947 C1273.95798,314.071315 1265.15753,333.11244 1257.40605,348.660312 L1256.74444,349.984207 C1254.21986,355.024615 1251.83892,359.658094 1249.95098,363.541947 C1247.04598,369.516947 1240.81898,382.246947 1237.28298,392.576947 C1243.26398,385.583947 1249.46598,376.474947 1252.00398,372.875947 C1264.61998,354.974947 1276.54898,336.603947 1286.31698,316.960947 C1292.79998,303.926947 1300.12598,289.456947 1308.83098,277.833947 C1325.74798,255.234947 1331.34598,252.010947 1359.61498,252.010947 C1380.64498,252.010947 1409.58298,274.621947 1409.58298,296.723947 C1409.58298,307.104947 1408.01098,317.243947 1402.98298,325.499947 C1388.70498,352.565947 1375.54798,382.445947 1362.34598,410.199947 C1357.71298,419.937947 1353.08398,429.680947 1348.46498,439.427947 C1349.32893,438.377397 1350.19196,437.318724 1351.05264,436.254184 L1352.08423,434.974063 C1353.28622,433.477639 1354.48246,431.971481 1355.66902,430.461776 L1356.6836,429.167019 C1370.85195,411.032294 1383.4627,392.641267 1387.69798,384.683947 C1400.19198,361.201947 1427.50398,360.513947 1438.18498,377.099947 C1443.53098,369.018947 1449.99298,362.472947 1459.13598,357.120947 C1475.58798,347.487947 1479.10498,346.244947 1491.07998,329.116947 L1528.27698,275.914947 C1531.07998,271.685947 1533.84598,262.115947 1535.77298,257.122947 C1545.70398,231.361947 1562.59398,214.567947 1592.41398,218.332947 C1603.31598,219.705947 1613.02798,224.881947 1618.50398,234.737947 C1625.07898,246.576947 1622.63098,259.445947 1618.90798,271.651947 C1617.99798,274.643947 1616.00398,279.920947 1615.69598,282.417947 C1615.69598,300.779947 1620.20698,317.439947 1625.26498,334.900947 C1632.13998,358.636947 1637.99998,379.863947 1637.99998,404.934947 C1637.99998,451.680947 1615.17298,492.866347 1573.94698,515.301147 C1539.79798,533.886647 1495.29998,537.114947 1461.49198,515.921647 C1434.92198,499.267147 1421.88798,472.003947 1419.72598,441.865947 C1416.43972,446.655567 1412.95514,451.489021 1409.38216,456.266085 L1408.18804,457.856214 C1392.22686,479.026419 1374.76078,498.862787 1365.43998,508.566547 C1365.15298,508.866047 1364.90098,509.111047 1364.59698,509.394847 C1350.41198,522.626947 1335.04298,533.468747 1317.14898,541.030947 C1314.9195,541.973735 1311.18923,543.211763 1307.38297,544.511422 L1305.82523,545.045947 C1301.50648,546.536997 1297.34048,548.066497 1295.41798,549.291647 C1289.24558,553.226539 1278.64781,565.653126 1268.29048,578.512912 L1267.09673,579.998197 L1267.09673,579.998197 L1265.90671,581.484577 C1257.19747,592.381979 1248.91734,603.145719 1243.89298,608.893747 C1243.56798,609.261747 1243.28598,609.566147 1242.94098,609.911947 C1204.09198,648.913547 1151.03198,673.144347 1095.60798,660.730747 C1056.91498,652.064947 1016.85998,622.363347 1014.87398,579.567747 C1013.56298,551.290147 1030.32398,528.437047 1053.12098,513.564647 C1057.00698,511.029947 1061.01598,508.757047 1065.13098,506.719847 C1036.38098,512.533447 1006.63798,505.938547 990.053979,478.838947 C987.848979,480.250147 985.702979,481.652947 983.835979,482.789547 C974.334979,488.573847 964.659979,494.091647 954.529979,498.705047 C924.823979,512.250647 889.023979,517.587347 867.448979,487.154047 C865.530979,484.445747 864.033979,481.394847 862.608979,478.458847 C862.064979,478.873147 861.584979,479.248647 861.204979,479.549147 C847.530979,490.326947 835.516979,498.244447 818.587979,503.226247 C798.568979,509.120547 777.002979,511.016847 757.123979,503.462747 C748.219979,500.078147 741.188979,495.654247 734.987979,488.303747 C730.948979,483.520947 729.465979,480.034547 727.850979,476.029947 C727.290979,476.591947 726.759979,477.106947 726.278979,477.537947 C717.228979,485.598647 706.664979,492.346647 695.847979,497.771147 C668.379979,511.549547 634.281979,513.387247 608.365979,494.899047 C595.571979,485.767947 586.917979,465.208947 586.917979,449.648947 C586.917979,429.038947 596.646979,403.168947 608.849979,377.902947 C606.004979,381.861947 603.623979,385.203947 601.928979,387.540947 C581.744979,415.332947 564.900979,445.875947 550.217979,476.899947 C539.136979,500.315047 529.237979,509.568047 502.153979,509.568047 C479.196979,509.568047 446.830979,497.805347 446.830979,470.219947 C446.830979,441.371947 494.869979,353.537947 509.197979,325.385947 C509.345979,325.094947 509.497979,324.798947 509.643979,324.506947 C485.784979,363.689947 443.530979,395.990947 396.865779,395.990947 C371.299679,395.990947 343.085879,394.262947 318.476379,386.749947 C310.365679,384.278947 304.860379,381.502947 298.798579,378.515947 C297.066079,380.754947 295.401579,383.049947 294.165979,384.650947 C285.465879,395.934947 276.747779,407.144947 267.756579,418.209947 C220.990479,475.767947 144.207379,534.968747 67.2249793,496.803847 C18.2211793,472.509947 -13.0613207,410.727947 5.33047932,357.483947 C11.3883793,339.936947 22.4579793,325.220947 37.4894793,314.388947 C47.0127793,307.526947 58.3096793,304.011947 69.7630793,308.286947 C91.5434793,316.429947 90.7177793,340.274947 102.760979,349.341947 C111.892079,356.211947 121.974579,360.643947 133.516879,360.758947 C153.303679,360.956947 174.469479,348.898947 195.584879,330.080947 C186.638979,331.419947 177.462679,331.601947 169.339879,331.601947 C163.408279,331.601947 157.527479,330.743947 151.841279,329.048947 C126.114679,321.376947 108.822779,298.480947 100.135279,274.034947 C90.4059793,246.668947 90.3600793,215.776947 98.5371793,188.017947 C122.540279,106.554947 221.707279,62.8599466 299.789379,56.6069466 C324.390379,54.6379466 346.180179,56.9239466 370.258179,61.4069466 C376.615179,62.5899466 394.087779,66.5359466 400.204879,64.4989466 C401.076879,64.2079466 401.793579,63.7769466 402.506079,63.1979466 C447.230979,26.8589466 507.735979,-6.49805341 567.412979,1.08594659 Z M1120.13298,478.133247 C1112.98398,485.054147 1104.42198,491.137947 1095.08498,496.014047 C1105.80898,493.394447 1116.87398,491.750947 1128.01598,490.724647 C1123.23498,485.738547 1121.68098,482.062647 1120.13298,478.133247 Z M1539.11498,353.072947 C1530.00098,365.814947 1519.07098,386.733947 1513.76798,398.089947 C1514.91498,399.344947 1516.38198,400.714947 1517.33798,401.672947 C1518.27798,402.623947 1520.17098,404.347947 1521.67498,404.283947 C1528.08698,404.018947 1535.04298,391.537947 1536.99898,386.504947 C1541.14698,375.832947 1541.70298,364.146947 1539.11498,353.072947 Z M914.795979,271.782947 C911.343979,274.102947 907.224979,275.335947 902.756979,275.306947 L874.909979,275.116947 C880.073979,282.548947 883.146979,291.598947 883.146979,302.089947 C883.146979,302.769947 883.120979,303.347947 883.058979,304.023947 C881.865979,317.261947 875.490979,333.548947 869.821979,345.497947 C866.617979,352.248947 855.590979,373.297947 849.448979,389.116947 C867.646979,365.519947 891.998979,317.988947 898.540979,304.962947 C904.067979,293.951947 909.459979,282.882947 914.795979,271.782947 Z M423.115979,176.981947 C418.440979,183.180947 413.474979,191.009947 410.051979,196.096947 C399.315379,212.049947 388.928579,228.286947 378.739979,244.591947 C368.639879,260.759947 358.678079,277.080947 349.168779,293.604947 C346.306779,298.582947 341.589279,306.334947 338.144979,313.133947 C346.989379,315.942947 361.818679,313.990947 368.298479,311.811947 C404.592979,299.596947 426.993979,273.109947 431.789979,235.034947 C433.586979,220.761947 432.700979,205.285947 428.814979,191.410947 C427.946979,188.317947 425.719979,181.848947 423.115979,176.981947 Z M1503.23298,157.673947 C1521.97898,163.048947 1541.63598,181.341947 1541.63598,201.930947 C1541.63598,221.834947 1527.83898,244.836947 1516.35998,260.438947 C1502.70298,279.003947 1470.78698,317.277947 1444.18398,302.278947 C1434.22698,296.660947 1430.10498,286.236947 1430.10498,275.260947 C1430.10498,260.992621 1435.33303,248.797847 1441.04556,236.608863 L1441.71957,235.174767 C1442.62047,233.262342 1443.52871,231.348064 1444.42599,229.423953 L1445.0966,227.9789 C1447.32323,223.155082 1449.45271,218.257332 1451.19898,213.160947 C1452.50098,208.201947 1452.93498,201.022947 1453.88298,195.821947 C1458.54998,170.251947 1474.27698,149.371947 1503.23298,157.673947 Z M337.972479,136.827947 C315.306179,142.872947 280.411379,161.019947 271.056979,170.145947 C250.152879,190.544947 233.026279,214.592947 233.202279,244.877947 C233.274279,257.528947 237.051479,271.495947 237.561879,284.754947 C279.348679,232.680947 316.907879,167.666947 337.972479,136.827947 Z"/>
    <path id="logo-inner" d="M1015.87892,187.663337 C1033.24092,193.887337 1036.24892,211.158337 1030.26792,228.223337 C1024.13727,245.713337 1009.94128,272.38034 995.455203,300.140025 L994.48912,301.992201 C994.328063,302.301137 994.166991,302.610186 994.005916,302.919337 L991.915916,306.935337 C989.810406,310.989277 987.712108,315.0524 985.644911,319.099864 L984.520577,321.305869 C968.266627,353.266088 954.229916,383.964117 954.229916,401.108337 C954.229916,413.766337 956.134916,422.528337 970.277916,422.528337 C982.293916,422.528337 996.492916,406.045337 1002.58292,398.646337 C1011.62192,387.659337 1029.16692,350.450337 1047.06392,311.646337 L1049.16992,307.075337 C1050.32541,304.566397 1051.48102,302.05484 1052.63458,299.547278 L1053.62278,297.399071 C1053.95198,296.683431 1054.28096,295.968271 1054.60967,295.253746 L1055.59494,293.112228 C1069.86805,262.092283 1083.53267,232.564657 1092.38492,217.221337 C1094.33892,213.831337 1095.29492,211.546337 1097.58192,208.143337 C1097.80492,207.810337 1098.02692,207.476337 1098.24892,207.141337 L1098.90892,206.132337 C1099.01892,205.964337 1099.12892,205.795337 1099.23792,205.626337 L1099.89192,204.611337 C1100.10992,204.273337 1100.32792,203.934337 1100.54492,203.596337 L1101.19692,202.581337 C1101.30592,202.412337 1101.41492,202.244337 1101.52392,202.075337 L1102.17892,201.067337 C1102.71683,200.243753 1103.25865,199.427399 1103.8085,198.624116 L1104.22247,198.024196 C1110.17946,189.463087 1117.18596,182.581295 1130.39592,184.636337 C1143.20092,186.625337 1162.84492,193.675337 1162.84492,209.218337 C1162.84492,218.124337 1161.36592,221.063337 1158.51092,228.087337 C1151.66607,244.916153 1138.90509,269.435523 1125.90558,295.466204 L1124.91791,297.446023 C1123.92996,299.428548 1122.94147,301.418888 1121.95492,303.414337 L1120.05092,307.277337 L1119.54763,308.302748 L1119.54763,308.302748 L1118.54322,310.355014 C1102.33088,343.546266 1087.44217,377.280897 1085.18692,399.253337 C1084.63392,404.629337 1084.39492,409.643337 1086.48692,415.078337 C1094.51992,435.937337 1119.75292,412.274337 1127.44792,403.161337 C1155.48292,368.927337 1166.36092,323.940337 1194.29092,286.218337 C1198.59492,280.399337 1204.97992,272.586337 1214.54992,272.586337 C1229.50992,272.586337 1240.35592,277.477337 1247.74392,288.445337 C1249.97492,291.762337 1251.99292,296.835337 1251.99292,301.149337 C1251.99292,309.609968 1244.14268,325.65665 1235.46539,343.218148 L1234.8516,344.46022 C1234.03161,346.11946 1233.20577,347.790852 1232.37992,349.469337 L1231.20392,351.865337 L1230.86841,352.551261 L1230.86841,352.551261 L1230.19866,353.924353 C1230.08721,354.153315 1229.97585,354.382325 1229.8646,354.61137 L1229.19855,355.985966 C1228.97705,356.444239 1228.7561,356.902552 1228.53583,357.360805 L1227.87716,358.73528 C1219.78132,375.682389 1212.76792,392.407837 1212.76792,403.785337 C1212.76792,413.792337 1220.44592,424.055337 1230.96792,422.077337 C1246.13892,419.223337 1261.21292,395.981337 1268.92892,385.043337 C1282.17092,366.284337 1294.55792,347.199337 1304.88892,326.436337 C1310.49592,315.182337 1318.16592,300.272337 1325.34692,290.687337 C1337.69392,274.215337 1338.09492,273.511337 1356.13292,273.481337 L1358.97492,273.480337 C1368.86792,273.480337 1387.50492,287.631337 1387.50492,296.683337 C1387.50492,303.068337 1386.81092,309.726337 1383.57192,315.060337 C1383.47157,315.225847 1383.22128,315.707775 1382.83447,316.478023 L1382.55652,317.033928 C1378.13794,325.904289 1360.66062,362.358867 1343.10092,399.225337 L1340.68592,404.297337 C1320.97892,445.698337 1301.91992,486.044337 1301.91992,486.790137 C1301.91992,492.478537 1306.40992,495.717137 1311.72592,495.717137 C1337.52792,495.717137 1395.08592,414.863337 1405.91192,394.547337 C1411.37892,384.280337 1420.48792,384.579337 1420.48792,393.075337 C1420.48792,410.241337 1366.15592,475.802337 1349.37992,493.250237 C1316.56092,523.820237 1294.48592,523.580337 1283.34592,530.676537 C1276.20523,535.224414 1264.70328,548.400949 1253.44143,562.098792 L1252.16777,563.651282 C1242.62677,575.30513 1233.38402,587.114237 1227.25592,594.116237 C1113.64592,708.036537 975.091916,589.241337 1064.40892,531.047437 C1095.49392,510.781037 1139.48892,510.017837 1175.81992,509.997537 L1182.45492,509.997837 C1194.84692,509.997837 1205.09392,510.728137 1212.43492,505.199837 C1225.50492,495.354437 1231.09792,473.402337 1216.33492,473.402337 C1209.87792,473.402337 1187.53892,486.790137 1174.43092,486.790137 C1164.73992,486.790137 1148.36392,480.836337 1143.42392,475.890337 C1140.75692,473.220337 1139.18692,469.780337 1137.78892,466.346337 L1137.39292,465.365337 C1137.26192,465.039337 1137.13192,464.713337 1137.00192,464.389337 L1136.61092,463.422337 C1134.11992,457.328337 1131.32192,451.982337 1122.72592,451.982337 C1115.60892,451.982337 1109.04192,458.206337 1105.12892,462.034337 C1080.36792,486.254837 1024.99892,502.606637 1005.63692,462.991337 C1002.37292,456.299337 1000.57392,452.876337 992.562916,452.876337 C984.143916,452.876337 912.814916,513.987837 884.663916,474.326337 C875.481916,461.389337 875.750916,440.259337 847.754916,462.308337 C836.201916,471.403337 826.741916,478.003337 812.374916,482.223337 C797.115916,486.709637 779.955916,488.822037 764.573916,482.983137 C758.761916,480.777337 754.874916,478.386337 751.209916,474.052337 C747.415916,469.556337 746.825916,465.210337 744.154916,459.693337 C740.785916,452.737337 736.527916,449.304337 728.675916,449.304337 C724.083916,449.304337 719.094916,454.070337 715.296916,457.866337 L714.473916,458.691337 L713.78826,459.376555 C713.120104,460.041149 712.505666,460.639087 711.955916,461.127337 C704.407916,467.844337 695.289916,473.617337 686.191916,478.175337 C665.885916,488.346037 640.016916,490.732537 620.764916,477.012337 C614.863916,472.808337 608.322916,459.491337 608.322916,449.304337 C608.322916,414.559337 647.863916,350.231337 664.121916,320.419337 C669.053916,312.268337 668.320916,300.255337 655.570916,300.255337 C635.509916,300.255337 596.887916,357.845337 584.626916,374.712337 C563.752916,403.419337 546.109916,435.275337 530.925916,467.322337 C523.297916,483.424937 520.382916,487.684137 502.234916,487.684137 C492.546916,487.684137 468.353916,482.914737 468.353916,469.835337 C468.353916,453.514337 492.898916,404.532337 518.734916,353.838337 L520.478916,350.418337 C522.223916,346.996337 523.971916,343.570337 525.716916,340.149337 L527.459916,336.729337 L528.330916,335.021337 C559.156916,274.513337 588.484916,216.538337 601.191916,198.512337 C612.997916,181.768337 625.300916,181.161337 642.808916,189.864337 C662.524916,199.663337 657.203916,218.293337 649.394916,235.237337 L648.729916,236.664337 C645.713916,243.068337 642.429916,249.185337 640.117916,254.437337 C638.966916,257.055337 636.132916,262.032337 633.704916,267.395337 L633.292916,268.318337 C629.018916,278.040337 626.443916,288.650337 637.742916,288.650337 C641.847916,288.650337 646.505916,286.945337 652.274916,284.645337 L653.484916,284.161337 C665.334916,279.408337 681.780916,272.586337 707.279916,272.586337 C740.175916,272.586337 731.376916,314.330337 723.150916,327.743337 C721.120863,331.053815 714.407152,344.438083 707.357393,359.232714 L706.859261,360.279271 C706.526877,360.978386 706.193975,361.680174 705.861009,362.38373 L705.361567,363.440279 C705.278338,363.616554 705.195118,363.792911 705.111916,363.969337 L703.616916,367.149337 C695.342916,384.823337 687.665916,402.333337 687.665916,405.574337 C687.665916,416.929337 696.346916,423.423337 706.387916,423.423337 C720.863916,423.423337 736.072916,405.535337 744.344916,394.480337 C761.209916,365.659337 771.060916,345.069337 783.771916,317.033337 C784.170916,316.259337 784.570916,315.484337 784.970916,314.710337 L785.770916,313.161337 C786.438916,311.871337 787.108916,310.585337 787.780916,309.305337 L788.588916,307.773337 C798.443916,289.190337 809.025916,272.586337 824.066916,272.586337 C842.030916,272.586337 861.510916,282.313337 861.510916,302.039337 C860.815916,309.721337 856.574916,322.895337 850.268916,336.164337 C848.839916,339.174337 847.339916,342.243337 845.810916,345.345337 L844.889916,347.210337 C844.581916,347.832337 844.273916,348.456337 843.964916,349.081337 L843.036916,350.957337 C842.571916,351.897337 842.106916,352.838337 841.642916,353.779337 L840.715916,355.664337 L840.253916,356.606337 L840.253916,356.606337 L839.333916,358.491337 L838.420916,360.375337 C827.211916,383.601337 818.068916,406.307337 827.862916,417.840337 C863.885916,460.289337 953.817916,226.709337 975.609916,198.496337 C986.986916,183.771337 997.018916,180.903337 1015.87892,187.663337 Z M1120.30892,548.635037 C1116.96892,551.456237 1110.24192,559.050937 1110.24192,564.439537 C1110.24192,575.668337 1112.63492,584.970437 1128.07592,584.970437 C1142.18892,584.970437 1189.58992,558.814537 1189.58992,539.451237 C1189.58992,517.432137 1131.49092,539.190037 1120.30892,548.635037 Z M1588.90492,239.700337 C1602.31852,241.391297 1601.51006,251.426068 1598.57724,262.024778 L1598.38308,262.716718 C1598.35026,262.832148 1598.31722,262.947625 1598.28397,263.063138 L1598.08218,263.756577 L1598.08218,263.756577 L1597.87622,264.450417 C1597.84159,264.566063 1597.80682,264.681707 1597.77192,264.797337 L1597.44192,265.881337 C1597.38592,266.061337 1597.33092,266.241337 1597.27492,266.421337 L1596.93892,267.500337 C1595.19792,273.062337 1593.44492,278.409337 1593.44492,282.406337 C1593.44492,302.283587 1597.75282,319.443721 1602.57981,336.335573 L1603.14986,338.32176 C1603.43586,339.314382 1603.72313,340.306408 1604.01092,341.298337 L1605.16392,345.266337 C1605.4517,346.258908 1605.73898,347.252042 1606.02497,348.246237 L1606.59502,350.236189 C1611.42201,367.165316 1615.72992,384.497087 1615.72992,404.680337 C1615.72992,526.097937 1440.10392,548.623037 1440.10392,432.349337 C1440.10392,418.384337 1444.70692,408.850337 1450.49392,397.233337 C1466.81407,364.476217 1478.06514,383.059675 1506.97057,342.549131 L1507.85192,341.303337 L1545.31592,287.774337 C1547.96992,283.775337 1549.96892,278.513337 1551.98692,272.933337 L1552.47192,271.588337 L1552.95992,270.234337 C1553.04092,270.007337 1553.12292,269.781337 1553.20492,269.554337 L1553.70092,268.191337 C1553.81416,267.882157 1553.92801,267.572821 1554.0426,267.263482 L1554.38863,266.335609 C1559.96353,251.494359 1567.4614,236.996977 1588.90492,239.700337 Z M598.171916,140.150337 C551.634916,171.176337 580.342916,124.562337 557.505916,98.5443366 C521.384916,57.3953366 455.874916,98.3593366 455.874916,112.826337 C455.874916,128.260337 465.754916,132.526337 475.113916,144.438337 C563.272916,256.651337 473.694916,374.333337 397.034216,374.333337 C254.866616,374.333337 326.675616,311.914337 251.442816,404.401337 C92.9042161,599.306537 -37.6897839,395.146337 50.4480161,331.707337 C72.1522161,316.085337 70.3749161,351.322337 90.3302161,366.325337 C190.451016,441.588337 303.029916,225.798337 356.558516,148.170337 C402.661316,81.3113366 284.017516,128.107337 256.408816,155.010337 C155.045316,253.780337 274.844316,310.071337 169.699316,310.071337 C129.884216,310.071337 102.687816,251.190337 119.476516,194.262337 C140.733516,122.208337 233.032716,83.8883366 301.745016,78.3973366 C363.533016,73.4523366 393.904716,98.3093366 416.143916,80.2623366 C583.392916,-55.4546634 687.644916,80.5023366 598.171916,140.150337 Z M1490.91992,394.864337 C1490.91992,406.118337 1493.53492,408.609337 1501.38192,416.520337 C1533.73392,449.135337 1581.07892,386.110337 1552.48392,329.658337 C1534.99292,295.128337 1490.91992,394.357337 1490.91992,394.864337 Z M413.283916,155.870337 C398.652116,170.493337 314.123516,305.214337 314.123516,316.321337 C314.123516,331.517337 345.345916,342.117337 375.301716,332.049337 C500.073916,290.110337 447.993916,121.179337 413.283916,155.870337 Z M1496.58792,178.505337 C1505.40892,181.030337 1519.44692,191.361337 1519.44692,202.079337 C1519.44692,234.434337 1450.80192,310.038337 1450.80192,275.263337 C1450.80192,256.979337 1461.92492,246.384337 1470.94692,219.570337 C1474.56492,206.752337 1472.66492,171.652337 1496.58792,178.505337 Z M861.213916,172.506337 L885.555916,172.677337 L909.906916,172.856337 L921.938916,194.985337 L933.967916,217.115337 L921.649916,239.081337 L909.330916,261.040337 L884.983916,260.869337 L860.637916,260.690337 L836.572916,216.431337 L848.890916,194.465337 L861.213916,172.506337 Z M885.269916,194.883337 C873.706916,194.883337 864.334916,204.683337 864.334916,216.773337 C864.334916,228.863337 873.706916,238.663337 885.269916,238.663337 C896.832916,238.663337 906.206916,228.863337 906.206916,216.773337 C906.206916,204.683337 896.832916,194.883337 885.269916,194.883337 Z"/>
</svg>
