<svg xmlns="http://www.w3.org/2000/svg" xmlns:xlink="http://www.w3.org/1999/xlink" width="100%" height="auto" viewBox="0 0 1939 964">
  <defs>
    <path id="spacer-demo.inline-a" d="M568.412979,1.08594659 C608.425979,6.17694659 646.009979,31.9079466 652.543979,74.0019466 C657.930979,108.692947 639.155979,138.978947 611.042979,157.741947 C596.635979,167.357947 577.011979,178.595947 560.580979,166.212947 C541.197979,151.610947 552.975979,124.431947 542.386979,112.355947 C532.729979,101.341947 519.576979,100.052947 506.007979,103.326947 C499.418979,104.920947 486.317979,110.268947 479.559979,116.010947 C482.713979,120.924947 490.317979,127.688947 492.842979,130.903947 C532.261979,181.134947 546.483979,243.356947 521.819979,302.520947 C532.307979,281.893947 542.829979,261.279947 553.582979,240.792947 C562.827979,223.174947 573.285979,202.188947 584.700979,185.981947 C602.708979,160.403947 626.357979,157.022947 653.369979,170.467947 C664.721979,176.115947 673.434979,185.077947 677.085979,197.426947 C682.647599,216.237727 674.849085,233.45245 666.848527,250.074176 L666.01108,251.811537 L666.01108,251.811537 L665.453617,252.967499 C665.360832,253.160012 665.268122,253.352453 665.175509,253.544824 L664.621159,254.698211 C664.068302,255.850775 663.520419,257.000907 662.981979,258.148947 C677.814979,253.391947 692.610979,251.114947 708.371979,251.114947 C757.009979,251.114947 762.371979,306.639947 742.512979,339.062947 C736.185979,349.548947 729.976979,363.901947 724.719979,375.106947 C721.874979,381.172947 717.541979,389.813947 714.117979,397.781947 C719.256979,393.193947 724.905979,386.315947 727.632979,382.761947 C741.905979,358.227947 753.725979,334.089947 765.428979,308.240947 C765.584979,307.893947 765.727979,307.602947 765.899979,307.265947 C778.170979,283.443947 794.033979,251.114947 825.257979,251.114947 C826.673979,251.114947 828.089979,251.156947 829.502979,251.241947 L812.851979,221.881947 C808.964979,215.028947 809.015979,207.216947 812.994979,200.418947 L837.523979,158.489947 C841.503979,151.695947 848.277979,147.837947 856.139979,147.887947 L904.629979,148.221947 C912.490979,148.277947 919.210979,152.231947 923.096979,159.080947 L947.044979,201.318947 C947.567979,202.234947 948.013979,203.173947 948.393979,204.119947 C952.136979,197.004947 956.069979,190.286947 959.986979,185.208947 C977.572979,162.422947 997.650979,157.660947 1024.44798,167.276947 C1053.87598,177.835947 1061.48498,207.676947 1051.83598,235.231947 C1039.44298,270.641947 983.566979,361.995947 977.483979,396.036947 C981.475979,392.226947 985.535979,387.506947 987.394979,385.241947 C993.413979,377.919947 1000.84198,361.962947 1005.12098,353.300947 C1014.54598,334.228947 1023.43198,314.832947 1032.32298,295.502947 C1045.66498,266.475947 1059.38498,233.914947 1075.25598,206.367947 C1077.28398,202.847947 1078.93198,199.450947 1081.23898,196.024947 C1094.95098,175.595947 1106.55998,158.797947 1135.13198,163.242947 C1159.07998,166.972947 1185.73398,181.249947 1185.73398,209.083947 C1185.73398,220.334947 1183.89198,226.051947 1179.81498,236.085947 C1168.47598,263.996947 1152.78998,292.066947 1139.50398,319.267947 C1130.44398,337.815947 1114.59898,369.904947 1109.38098,392.990947 C1110.63598,391.731947 1111.68998,390.586947 1112.37698,389.754947 C1115.50098,385.959947 1118.39298,381.980947 1121.10398,377.877947 C1143.09098,344.614947 1154.04198,306.651947 1178.58898,273.455947 C1187.91298,260.844947 1199.45498,251.114947 1216.06798,251.114947 C1237.08998,251.114947 1255.10698,258.719947 1267.04498,276.468947 C1271.77898,283.507947 1274.95798,292.675947 1274.95798,301.197947 C1274.95798,314.071315 1266.15753,333.11244 1258.40605,348.660312 L1257.74444,349.984207 C1255.21986,355.024615 1252.83892,359.658094 1250.95098,363.541947 C1248.04598,369.516947 1241.81898,382.246947 1238.28298,392.576947 C1244.26398,385.583947 1250.46598,376.474947 1253.00398,372.875947 C1265.61998,354.974947 1277.54898,336.603947 1287.31698,316.960947 C1293.79998,303.926947 1301.12598,289.456947 1309.83098,277.833947 C1326.74798,255.234947 1332.34598,252.010947 1360.61498,252.010947 C1381.64498,252.010947 1410.58298,274.621947 1410.58298,296.723947 C1410.58298,307.104947 1409.01098,317.243947 1403.98298,325.499947 C1389.70498,352.565947 1376.54798,382.445947 1363.34598,410.199947 C1358.71298,419.937947 1354.08398,429.680947 1349.46498,439.427947 C1350.32893,438.377397 1351.19196,437.318724 1352.05264,436.254184 L1353.08423,434.974063 C1354.28622,433.477639 1355.48246,431.971481 1356.66902,430.461776 L1357.6836,429.167019 C1371.85195,411.032294 1384.4627,392.641267 1388.69798,384.683947 C1401.19198,361.201947 1428.50398,360.513947 1439.18498,377.099947 C1444.53098,369.018947 1450.99298,362.472947 1460.13598,357.120947 C1476.58798,347.487947 1480.10498,346.244947 1492.07998,329.116947 L1529.27698,275.914947 C1532.07998,271.685947 1534.84598,262.115947 1536.77298,257.122947 C1546.70398,231.361947 1563.59398,214.567947 1593.41398,218.332947 C1604.31598,219.705947 1614.02798,224.881947 1619.50398,234.737947 C1626.07898,246.576947 1623.63098,259.445947 1619.90798,271.651947 C1618.99798,274.643947 1617.00398,279.920947 1616.69598,282.417947 C1616.69598,300.779947 1621.20698,317.439947 1626.26498,334.900947 C1633.13998,358.636947 1638.99998,379.863947 1638.99998,404.934947 C1638.99998,451.680947 1616.17298,492.866347 1574.94698,515.301147 C1540.79798,533.886647 1496.29998,537.114947 1462.49198,515.921647 C1435.92198,499.267147 1422.88798,472.003947 1420.72598,441.865947 C1417.43972,446.655567 1413.95514,451.489021 1410.38216,456.266085 L1409.18804,457.856214 C1393.22686,479.026419 1375.76078,498.862787 1366.43998,508.566547 C1366.15298,508.866047 1365.90098,509.111047 1365.59698,509.394847 C1351.41198,522.626947 1336.04298,533.468747 1318.14898,541.030947 C1315.9195,541.973735 1312.18923,543.211763 1308.38297,544.511422 L1306.82523,545.045947 C1302.50648,546.536997 1298.34048,548.066497 1296.41798,549.291647 C1290.24558,553.226539 1279.64781,565.653126 1269.29048,578.512912 L1268.09673,579.998197 L1268.09673,579.998197 L1266.90671,581.484577 C1258.19747,592.381979 1249.91734,603.145719 1244.89298,608.893747 C1244.56798,609.261747 1244.28598,609.566147 1243.94098,609.911947 C1205.09198,648.913547 1152.03198,673.144347 1096.60798,660.730747 C1057.91498,652.064947 1017.85998,622.363347 1015.87398,579.567747 C1014.56298,551.290147 1031.32398,528.437047 1054.12098,513.564647 C1058.00698,511.029947 1062.01598,508.757047 1066.13098,506.719847 C1037.38098,512.533447 1007.63798,505.938547 991.053979,478.838947 C988.848979,480.250147 986.702979,481.652947 984.835979,482.789547 C975.334979,488.573847 965.659979,494.091647 955.529979,498.705047 C925.823979,512.250647 890.023979,517.587347 868.448979,487.154047 C866.530979,484.445747 865.033979,481.394847 863.608979,478.458847 C863.064979,478.873147 862.584979,479.248647 862.204979,479.549147 C848.530979,490.326947 836.516979,498.244447 819.587979,503.226247 C799.568979,509.120547 778.002979,511.016847 758.123979,503.462747 C749.219979,500.078147 742.188979,495.654247 735.987979,488.303747 C731.948979,483.520947 730.465979,480.034547 728.850979,476.029947 C728.290979,476.591947 727.759979,477.106947 727.278979,477.537947 C718.228979,485.598647 707.664979,492.346647 696.847979,497.771147 C669.379979,511.549547 635.281979,513.387247 609.365979,494.899047 C596.571979,485.767947 587.917979,465.208947 587.917979,449.648947 C587.917979,429.038947 597.646979,403.168947 609.849979,377.902947 C607.004979,381.861947 604.623979,385.203947 602.928979,387.540947 C582.744979,415.332947 565.900979,445.875947 551.217979,476.899947 C540.136979,500.315047 530.237979,509.568047 503.153979,509.568047 C480.196979,509.568047 447.830979,497.805347 447.830979,470.219947 C447.830979,441.371947 495.869979,353.537947 510.197979,325.385947 C510.345979,325.094947 510.497979,324.798947 510.643979,324.506947 C486.784979,363.689947 444.530979,395.990947 397.865779,395.990947 C372.299679,395.990947 344.085879,394.262947 319.476379,386.749947 C311.365679,384.278947 305.860379,381.502947 299.798579,378.515947 C298.066079,380.754947 296.401579,383.049947 295.165979,384.650947 C286.465879,395.934947 277.747779,407.144947 268.756579,418.209947 C221.990479,475.767947 145.207379,534.968747 68.2249793,496.803847 C19.2211793,472.509947 -12.0613207,410.727947 6.33047932,357.483947 C12.3883793,339.936947 23.4579793,325.220947 38.4894793,314.388947 C48.0127793,307.526947 59.3096793,304.011947 70.7630793,308.286947 C92.5434793,316.429947 91.7177793,340.274947 103.760979,349.341947 C112.892079,356.211947 122.974579,360.643947 134.516879,360.758947 C154.303679,360.956947 175.469479,348.898947 196.584879,330.080947 C187.638979,331.419947 178.462679,331.601947 170.339879,331.601947 C164.408279,331.601947 158.527479,330.743947 152.841279,329.048947 C127.114679,321.376947 109.822779,298.480947 101.135279,274.034947 C91.4059793,246.668947 91.3600793,215.776947 99.5371793,188.017947 C123.540279,106.554947 222.707279,62.8599466 300.789379,56.6069466 C325.390379,54.6379466 347.180179,56.9239466 371.258179,61.4069466 C377.615179,62.5899466 395.087779,66.5359466 401.204879,64.4989466 C402.076879,64.2079466 402.793579,63.7769466 403.506079,63.1979466 C448.230979,26.8589466 508.735979,-6.49805341 568.412979,1.08594659 Z M1121.13298,478.133247 C1113.98398,485.054147 1105.42198,491.137947 1096.08498,496.014047 C1106.80898,493.394447 1117.87398,491.750947 1129.01598,490.724647 C1124.23498,485.738547 1122.68098,482.062647 1121.13298,478.133247 Z M1540.11498,353.072947 C1531.00098,365.814947 1520.07098,386.733947 1514.76798,398.089947 C1515.91498,399.344947 1517.38198,400.714947 1518.33798,401.672947 C1519.27798,402.623947 1521.17098,404.347947 1522.67498,404.283947 C1529.08698,404.018947 1536.04298,391.537947 1537.99898,386.504947 C1542.14698,375.832947 1542.70298,364.146947 1540.11498,353.072947 Z M915.795979,271.782947 C912.343979,274.102947 908.224979,275.335947 903.756979,275.306947 L875.909979,275.116947 C881.073979,282.548947 884.146979,291.598947 884.146979,302.089947 C884.146979,302.769947 884.120979,303.347947 884.058979,304.023947 C882.865979,317.261947 876.490979,333.548947 870.821979,345.497947 C867.617979,352.248947 856.590979,373.297947 850.448979,389.116947 C868.646979,365.519947 892.998979,317.988947 899.540979,304.962947 C905.067979,293.951947 910.459979,282.882947 915.795979,271.782947 Z M424.115979,176.981947 C419.440979,183.180947 414.474979,191.009947 411.051979,196.096947 C400.315379,212.049947 389.928579,228.286947 379.739979,244.591947 C369.639879,260.759947 359.678079,277.080947 350.168779,293.604947 C347.306779,298.582947 342.589279,306.334947 339.144979,313.133947 C347.989379,315.942947 362.818679,313.990947 369.298479,311.811947 C405.592979,299.596947 427.993979,273.109947 432.789979,235.034947 C434.586979,220.761947 433.700979,205.285947 429.814979,191.410947 C428.946979,188.317947 426.719979,181.848947 424.115979,176.981947 Z M1504.23298,157.673947 C1522.97898,163.048947 1542.63598,181.341947 1542.63598,201.930947 C1542.63598,221.834947 1528.83898,244.836947 1517.35998,260.438947 C1503.70298,279.003947 1471.78698,317.277947 1445.18398,302.278947 C1435.22698,296.660947 1431.10498,286.236947 1431.10498,275.260947 C1431.10498,260.992621 1436.33303,248.797847 1442.04556,236.608863 L1442.71957,235.174767 C1443.62047,233.262342 1444.52871,231.348064 1445.42599,229.423953 L1446.0966,227.9789 C1448.32323,223.155082 1450.45271,218.257332 1452.19898,213.160947 C1453.50098,208.201947 1453.93498,201.022947 1454.88298,195.821947 C1459.54998,170.251947 1475.27698,149.371947 1504.23298,157.673947 Z M338.972479,136.827947 C316.306179,142.872947 281.411379,161.019947 272.056979,170.145947 C251.152879,190.544947 234.026279,214.592947 234.202279,244.877947 C234.274279,257.528947 238.051479,271.495947 238.561879,284.754947 C280.348679,232.680947 317.907879,167.666947 338.972479,136.827947 Z"/>
    <path id="spacer-demo.inline-b" d="M1016.87892,187.663337 C1034.24092,193.887337 1037.24892,211.158337 1031.26792,228.223337 C1025.13727,245.713337 1010.94128,272.38034 996.455203,300.140025 L995.48912,301.992201 C995.328063,302.301137 995.166991,302.610186 995.005916,302.919337 L992.915916,306.935337 C990.810406,310.989277 988.712108,315.0524 986.644911,319.099864 L985.520577,321.305869 C969.266627,353.266088 955.229916,383.964117 955.229916,401.108337 C955.229916,413.766337 957.134916,422.528337 971.277916,422.528337 C983.293916,422.528337 997.492916,406.045337 1003.58292,398.646337 C1012.62192,387.659337 1030.16692,350.450337 1048.06392,311.646337 L1050.16992,307.075337 C1051.32541,304.566397 1052.48102,302.05484 1053.63458,299.547278 L1054.62278,297.399071 C1054.95198,296.683431 1055.28096,295.968271 1055.60967,295.253746 L1056.59494,293.112228 C1070.86805,262.092283 1084.53267,232.564657 1093.38492,217.221337 C1095.33892,213.831337 1096.29492,211.546337 1098.58192,208.143337 C1098.80492,207.810337 1099.02692,207.476337 1099.24892,207.141337 L1099.90892,206.132337 C1100.01892,205.964337 1100.12892,205.795337 1100.23792,205.626337 L1100.89192,204.611337 C1101.10992,204.273337 1101.32792,203.934337 1101.54492,203.596337 L1102.19692,202.581337 C1102.30592,202.412337 1102.41492,202.244337 1102.52392,202.075337 L1103.17892,201.067337 C1103.71683,200.243753 1104.25865,199.427399 1104.8085,198.624116 L1105.22247,198.024196 C1111.17946,189.463087 1118.18596,182.581295 1131.39592,184.636337 C1144.20092,186.625337 1163.84492,193.675337 1163.84492,209.218337 C1163.84492,218.124337 1162.36592,221.063337 1159.51092,228.087337 C1152.66607,244.916153 1139.90509,269.435523 1126.90558,295.466204 L1125.91791,297.446023 C1124.92996,299.428548 1123.94147,301.418888 1122.95492,303.414337 L1121.05092,307.277337 L1120.54763,308.302748 L1120.54763,308.302748 L1119.54322,310.355014 C1103.33088,343.546266 1088.44217,377.280897 1086.18692,399.253337 C1085.63392,404.629337 1085.39492,409.643337 1087.48692,415.078337 C1095.51992,435.937337 1120.75292,412.274337 1128.44792,403.161337 C1156.48292,368.927337 1167.36092,323.940337 1195.29092,286.218337 C1199.59492,280.399337 1205.97992,272.586337 1215.54992,272.586337 C1230.50992,272.586337 1241.35592,277.477337 1248.74392,288.445337 C1250.97492,291.762337 1252.99292,296.835337 1252.99292,301.149337 C1252.99292,309.609968 1245.14268,325.65665 1236.46539,343.218148 L1235.8516,344.46022 C1235.03161,346.11946 1234.20577,347.790852 1233.37992,349.469337 L1232.20392,351.865337 L1231.86841,352.551261 L1231.86841,352.551261 L1231.19866,353.924353 C1231.08721,354.153315 1230.97585,354.382325 1230.8646,354.61137 L1230.19855,355.985966 C1229.97705,356.444239 1229.7561,356.902552 1229.53583,357.360805 L1228.87716,358.73528 C1220.78132,375.682389 1213.76792,392.407837 1213.76792,403.785337 C1213.76792,413.792337 1221.44592,424.055337 1231.96792,422.077337 C1247.13892,419.223337 1262.21292,395.981337 1269.92892,385.043337 C1283.17092,366.284337 1295.55792,347.199337 1305.88892,326.436337 C1311.49592,315.182337 1319.16592,300.272337 1326.34692,290.687337 C1338.69392,274.215337 1339.09492,273.511337 1357.13292,273.481337 L1359.97492,273.480337 C1369.86792,273.480337 1388.50492,287.631337 1388.50492,296.683337 C1388.50492,303.068337 1387.81092,309.726337 1384.57192,315.060337 C1384.47157,315.225847 1384.22128,315.707775 1383.83447,316.478023 L1383.55652,317.033928 C1379.13794,325.904289 1361.66062,362.358867 1344.10092,399.225337 L1341.68592,404.297337 C1321.97892,445.698337 1302.91992,486.044337 1302.91992,486.790137 C1302.91992,492.478537 1307.40992,495.717137 1312.72592,495.717137 C1338.52792,495.717137 1396.08592,414.863337 1406.91192,394.547337 C1412.37892,384.280337 1421.48792,384.579337 1421.48792,393.075337 C1421.48792,410.241337 1367.15592,475.802337 1350.37992,493.250237 C1317.56092,523.820237 1295.48592,523.580337 1284.34592,530.676537 C1277.20523,535.224414 1265.70328,548.400949 1254.44143,562.098792 L1253.16777,563.651282 C1243.62677,575.30513 1234.38402,587.114237 1228.25592,594.116237 C1114.64592,708.036537 976.091916,589.241337 1065.40892,531.047437 C1096.49392,510.781037 1140.48892,510.017837 1176.81992,509.997537 L1183.45492,509.997837 C1195.84692,509.997837 1206.09392,510.728137 1213.43492,505.199837 C1226.50492,495.354437 1232.09792,473.402337 1217.33492,473.402337 C1210.87792,473.402337 1188.53892,486.790137 1175.43092,486.790137 C1165.73992,486.790137 1149.36392,480.836337 1144.42392,475.890337 C1141.75692,473.220337 1140.18692,469.780337 1138.78892,466.346337 L1138.39292,465.365337 C1138.26192,465.039337 1138.13192,464.713337 1138.00192,464.389337 L1137.61092,463.422337 C1135.11992,457.328337 1132.32192,451.982337 1123.72592,451.982337 C1116.60892,451.982337 1110.04192,458.206337 1106.12892,462.034337 C1081.36792,486.254837 1025.99892,502.606637 1006.63692,462.991337 C1003.37292,456.299337 1001.57392,452.876337 993.562916,452.876337 C985.143916,452.876337 913.814916,513.987837 885.663916,474.326337 C876.481916,461.389337 876.750916,440.259337 848.754916,462.308337 C837.201916,471.403337 827.741916,478.003337 813.374916,482.223337 C798.115916,486.709637 780.955916,488.822037 765.573916,482.983137 C759.761916,480.777337 755.874916,478.386337 752.209916,474.052337 C748.415916,469.556337 747.825916,465.210337 745.154916,459.693337 C741.785916,452.737337 737.527916,449.304337 729.675916,449.304337 C725.083916,449.304337 720.094916,454.070337 716.296916,457.866337 L715.473916,458.691337 L714.78826,459.376555 C714.120104,460.041149 713.505666,460.639087 712.955916,461.127337 C705.407916,467.844337 696.289916,473.617337 687.191916,478.175337 C666.885916,488.346037 641.016916,490.732537 621.764916,477.012337 C615.863916,472.808337 609.322916,459.491337 609.322916,449.304337 C609.322916,414.559337 648.863916,350.231337 665.121916,320.419337 C670.053916,312.268337 669.320916,300.255337 656.570916,300.255337 C636.509916,300.255337 597.887916,357.845337 585.626916,374.712337 C564.752916,403.419337 547.109916,435.275337 531.925916,467.322337 C524.297916,483.424937 521.382916,487.684137 503.234916,487.684137 C493.546916,487.684137 469.353916,482.914737 469.353916,469.835337 C469.353916,453.514337 493.898916,404.532337 519.734916,353.838337 L521.478916,350.418337 C523.223916,346.996337 524.971916,343.570337 526.716916,340.149337 L528.459916,336.729337 L529.330916,335.021337 C560.156916,274.513337 589.484916,216.538337 602.191916,198.512337 C613.997916,181.768337 626.300916,181.161337 643.808916,189.864337 C663.524916,199.663337 658.203916,218.293337 650.394916,235.237337 L649.729916,236.664337 C646.713916,243.068337 643.429916,249.185337 641.117916,254.437337 C639.966916,257.055337 637.132916,262.032337 634.704916,267.395337 L634.292916,268.318337 C630.018916,278.040337 627.443916,288.650337 638.742916,288.650337 C642.847916,288.650337 647.505916,286.945337 653.274916,284.645337 L654.484916,284.161337 C666.334916,279.408337 682.780916,272.586337 708.279916,272.586337 C741.175916,272.586337 732.376916,314.330337 724.150916,327.743337 C722.120863,331.053815 715.407152,344.438083 708.357393,359.232714 L707.859261,360.279271 C707.526877,360.978386 707.193975,361.680174 706.861009,362.38373 L706.361567,363.440279 C706.278338,363.616554 706.195118,363.792911 706.111916,363.969337 L704.616916,367.149337 C696.342916,384.823337 688.665916,402.333337 688.665916,405.574337 C688.665916,416.929337 697.346916,423.423337 707.387916,423.423337 C721.863916,423.423337 737.072916,405.535337 745.344916,394.480337 C762.209916,365.659337 772.060916,345.069337 784.771916,317.033337 C785.170916,316.259337 785.570916,315.484337 785.970916,314.710337 L786.770916,313.161337 C787.438916,311.871337 788.108916,310.585337 788.780916,309.305337 L789.588916,307.773337 C799.443916,289.190337 810.025916,272.586337 825.066916,272.586337 C843.030916,272.586337 862.510916,282.313337 862.510916,302.039337 C861.815916,309.721337 857.574916,322.895337 851.268916,336.164337 C849.839916,339.174337 848.339916,342.243337 846.810916,345.345337 L845.889916,347.210337 C845.581916,347.832337 845.273916,348.456337 844.964916,349.081337 L844.036916,350.957337 C843.571916,351.897337 843.106916,352.838337 842.642916,353.779337 L841.715916,355.664337 L841.253916,356.606337 L841.253916,356.606337 L840.333916,358.491337 L839.420916,360.375337 C828.211916,383.601337 819.068916,406.307337 828.862916,417.840337 C864.885916,460.289337 954.817916,226.709337 976.609916,198.496337 C987.986916,183.771337 998.018916,180.903337 1016.87892,187.663337 Z M1121.30892,548.635037 C1117.96892,551.456237 1111.24192,559.050937 1111.24192,564.439537 C1111.24192,575.668337 1113.63492,584.970437 1129.07592,584.970437 C1143.18892,584.970437 1190.58992,558.814537 1190.58992,539.451237 C1190.58992,517.432137 1132.49092,539.190037 1121.30892,548.635037 Z M1589.90492,239.700337 C1603.31852,241.391297 1602.51006,251.426068 1599.57724,262.024778 L1599.38308,262.716718 C1599.35026,262.832148 1599.31722,262.947625 1599.28397,263.063138 L1599.08218,263.756577 L1599.08218,263.756577 L1598.87622,264.450417 C1598.84159,264.566063 1598.80682,264.681707 1598.77192,264.797337 L1598.44192,265.881337 C1598.38592,266.061337 1598.33092,266.241337 1598.27492,266.421337 L1597.93892,267.500337 C1596.19792,273.062337 1594.44492,278.409337 1594.44492,282.406337 C1594.44492,302.283587 1598.75282,319.443721 1603.57981,336.335573 L1604.14986,338.32176 C1604.43586,339.314382 1604.72313,340.306408 1605.01092,341.298337 L1606.16392,345.266337 C1606.4517,346.258908 1606.73898,347.252042 1607.02497,348.246237 L1607.59502,350.236189 C1612.42201,367.165316 1616.72992,384.497087 1616.72992,404.680337 C1616.72992,526.097937 1441.10392,548.623037 1441.10392,432.349337 C1441.10392,418.384337 1445.70692,408.850337 1451.49392,397.233337 C1467.81407,364.476217 1479.06514,383.059675 1507.97057,342.549131 L1508.85192,341.303337 L1546.31592,287.774337 C1548.96992,283.775337 1550.96892,278.513337 1552.98692,272.933337 L1553.47192,271.588337 L1553.95992,270.234337 C1554.04092,270.007337 1554.12292,269.781337 1554.20492,269.554337 L1554.70092,268.191337 C1554.81416,267.882157 1554.92801,267.572821 1555.0426,267.263482 L1555.38863,266.335609 C1560.96353,251.494359 1568.4614,236.996977 1589.90492,239.700337 Z M599.171916,140.150337 C552.634916,171.176337 581.342916,124.562337 558.505916,98.5443366 C522.384916,57.3953366 456.874916,98.3593366 456.874916,112.826337 C456.874916,128.260337 466.754916,132.526337 476.113916,144.438337 C564.272916,256.651337 474.694916,374.333337 398.034216,374.333337 C255.866616,374.333337 327.675616,311.914337 252.442816,404.401337 C93.9042161,599.306537 -36.6897839,395.146337 51.4480161,331.707337 C73.1522161,316.085337 71.3749161,351.322337 91.3302161,366.325337 C191.451016,441.588337 304.029916,225.798337 357.558516,148.170337 C403.661316,81.3113366 285.017516,128.107337 257.408816,155.010337 C156.045316,253.780337 275.844316,310.071337 170.699316,310.071337 C130.884216,310.071337 103.687816,251.190337 120.476516,194.262337 C141.733516,122.208337 234.032716,83.8883366 302.745016,78.3973366 C364.533016,73.4523366 394.904716,98.3093366 417.143916,80.2623366 C584.392916,-55.4546634 688.644916,80.5023366 599.171916,140.150337 Z M1491.91992,394.864337 C1491.91992,406.118337 1494.53492,408.609337 1502.38192,416.520337 C1534.73392,449.135337 1582.07892,386.110337 1553.48392,329.658337 C1535.99292,295.128337 1491.91992,394.357337 1491.91992,394.864337 Z M414.283916,155.870337 C399.652116,170.493337 315.123516,305.214337 315.123516,316.321337 C315.123516,331.517337 346.345916,342.117337 376.301716,332.049337 C501.073916,290.110337 448.993916,121.179337 414.283916,155.870337 Z M1497.58792,178.505337 C1506.40892,181.030337 1520.44692,191.361337 1520.44692,202.079337 C1520.44692,234.434337 1451.80192,310.038337 1451.80192,275.263337 C1451.80192,256.979337 1462.92492,246.384337 1471.94692,219.570337 C1475.56492,206.752337 1473.66492,171.652337 1497.58792,178.505337 Z M862.213916,172.506337 L886.555916,172.677337 L910.906916,172.856337 L922.938916,194.985337 L934.967916,217.115337 L922.649916,239.081337 L910.330916,261.040337 L885.983916,260.869337 L861.637916,260.690337 L837.572916,216.431337 L849.890916,194.465337 L862.213916,172.506337 Z M886.269916,194.883337 C874.706916,194.883337 865.334916,204.683337 865.334916,216.773337 C865.334916,228.863337 874.706916,238.663337 886.269916,238.663337 C897.832916,238.663337 907.206916,228.863337 907.206916,216.773337 C907.206916,204.683337 897.832916,194.883337 886.269916,194.883337 Z"/>
    <path id="spacer-demo.inline-c" d="M73.128,1.84906077 C91.874,7.22406077 111.531,25.5170608 111.531,46.1060608 C111.531,66.0100608 97.734,89.0120608 86.255,104.614061 C72.598,123.179061 40.682,161.453061 14.079,146.454061 C4.122,140.836061 -4.54747351e-13,130.412061 -4.54747351e-13,119.436061 C-4.54747351e-13,105.167735 5.22805153,92.972961 10.9405788,80.7839774 L11.6145899,79.3498813 C12.5154888,77.4374563 13.4237313,75.5231785 14.3210086,73.5990669 L14.9916245,72.1540147 C17.2182503,67.3301963 19.3477349,62.4324463 21.094,57.3360608 C22.396,52.3770608 22.83,45.1980608 23.778,39.9970608 C28.445,14.4270608 44.172,-6.45293923 73.128,1.84906077 Z"/>
    <path id="spacer-demo.inline-d" d="M66.4829368,22.6804508 C75.3039368,25.2054508 89.3419368,35.5364508 89.3419368,46.2544508 C89.3419368,78.6094508 20.6969368,154.213451 20.6969368,119.438451 C20.6969368,101.154451 31.8199368,90.5594508 40.8419368,63.7454508 C44.4599368,50.9274508 42.5599368,15.8274508 66.4829368,22.6804508 Z"/>
    <path id="spacer-demo.inline-e" d="M73.128,1.84906077 C91.874,7.22406077 111.531,25.5170608 111.531,46.1060608 C111.531,66.0100608 97.734,89.0120608 86.255,104.614061 C72.598,123.179061 40.682,161.453061 14.079,146.454061 C4.122,140.836061 -4.54747351e-13,130.412061 -4.54747351e-13,119.436061 C-4.54747351e-13,105.167735 5.22805153,92.972961 10.9405788,80.7839774 L11.6145899,79.3498813 C12.5154888,77.4374563 13.4237313,75.5231785 14.3210086,73.5990669 L14.9916245,72.1540147 C17.2182503,67.3301963 19.3477349,62.4324463 21.094,57.3360608 C22.396,52.3770608 22.83,45.1980608 23.778,39.9970608 C28.445,14.4270608 44.172,-6.45293923 73.128,1.84906077 Z"/>
    <path id="spacer-demo.inline-f" d="M66.4829368,22.6804508 C75.3039368,25.2054508 89.3419368,35.5364508 89.3419368,46.2544508 C89.3419368,78.6094508 20.6969368,154.213451 20.6969368,119.438451 C20.6969368,101.154451 31.8199368,90.5594508 40.8419368,63.7454508 C44.4599368,50.9274508 42.5599368,15.8274508 66.4829368,22.6804508 Z"/>
    <path id="spacer-demo.inline-g" d="M73.128,1.84906077 C91.874,7.22406077 111.531,25.5170608 111.531,46.1060608 C111.531,66.0100608 97.734,89.0120608 86.255,104.614061 C72.598,123.179061 40.682,161.453061 14.079,146.454061 C4.122,140.836061 -4.54747351e-13,130.412061 -4.54747351e-13,119.436061 C-4.54747351e-13,105.167735 5.22805153,92.972961 10.9405788,80.7839774 L11.6145899,79.3498813 C12.5154888,77.4374563 13.4237313,75.5231785 14.3210086,73.5990669 L14.9916245,72.1540147 C17.2182503,67.3301963 19.3477349,62.4324463 21.094,57.3360608 C22.396,52.3770608 22.83,45.1980608 23.778,39.9970608 C28.445,14.4270608 44.172,-6.45293923 73.128,1.84906077 Z"/>
    <path id="spacer-demo.inline-h" d="M66.4829368,22.6804508 C75.3039368,25.2054508 89.3419368,35.5364508 89.3419368,46.2544508 C89.3419368,78.6094508 20.6969368,154.213451 20.6969368,119.438451 C20.6969368,101.154451 31.8199368,90.5594508 40.8419368,63.7454508 C44.4599368,50.9274508 42.5599368,15.8274508 66.4829368,22.6804508 Z"/>
    <path id="spacer-demo.inline-i" d="M73.128,1.84906077 C91.874,7.22406077 111.531,25.5170608 111.531,46.1060608 C111.531,66.0100608 97.734,89.0120608 86.255,104.614061 C72.598,123.179061 40.682,161.453061 14.079,146.454061 C4.122,140.836061 -4.54747351e-13,130.412061 -4.54747351e-13,119.436061 C-4.54747351e-13,105.167735 5.22805153,92.972961 10.9405788,80.7839774 L11.6145899,79.3498813 C12.5154888,77.4374563 13.4237313,75.5231785 14.3210086,73.5990669 L14.9916245,72.1540147 C17.2182503,67.3301963 19.3477349,62.4324463 21.094,57.3360608 C22.396,52.3770608 22.83,45.1980608 23.778,39.9970608 C28.445,14.4270608 44.172,-6.45293923 73.128,1.84906077 Z"/>
    <path id="spacer-demo.inline-j" d="M66.4829368,22.6804508 C75.3039368,25.2054508 89.3419368,35.5364508 89.3419368,46.2544508 C89.3419368,78.6094508 20.6969368,154.213451 20.6969368,119.438451 C20.6969368,101.154451 31.8199368,90.5594508 40.8419368,63.7454508 C44.4599368,50.9274508 42.5599368,15.8274508 66.4829368,22.6804508 Z"/>
  </defs>
  <g fill="none" fill-rule="evenodd">
    <g transform="translate(150 150)">
      <use fill="#06F" xlink:href="#spacer-demo.inline-a"/>
      <use fill="#F60" xlink:href="#spacer-demo.inline-b"/>
    </g>
    <g transform="translate(686)">
      <use fill="#06F" xlink:href="#spacer-demo.inline-c"/>
      <use fill="#F60" xlink:href="#spacer-demo.inline-d"/>
    </g>
    <g transform="translate(1221 814)">
      <use fill="#06F" xlink:href="#spacer-demo.inline-e"/>
      <use fill="#F60" xlink:href="#spacer-demo.inline-f"/>
    </g>
    <g transform="rotate(90 703.823 1235.509)">
      <use fill="#06F" xlink:href="#spacer-demo.inline-g"/>
      <use fill="#F60" xlink:href="#spacer-demo.inline-h"/>
    </g>
    <g transform="rotate(90 -162.677 313.009)">
      <use fill="#06F" xlink:href="#spacer-demo.inline-i"/>
      <use fill="#F60" xlink:href="#spacer-demo.inline-j"/>
    </g>
    <path fill="#EF0000" fill-opacity=".5" d="M1939,0 L1939,964 L0,964 L0,0 L1939,0 Z M1789,150 L150,150 L150,814 L1789,814 L1789,150 Z"/>
  </g>
</svg>
